# xmcd CD database file
#
# Track frame offsets:
#	150
#	22032
#	39134
#	55413
#	73001
#	93795
#	110674
#	130563
#	146837
#	163403
#	188154
#	208896
#
# Disc length: 3231 seconds
#
# Revision: 0
# Processed by: cddbd v1.5.1PL2 Copyright (c) Steve Scherf et al.
# Submitted via: CDex 1.60beta1-cs1
#
DISCID=af0c9d0c
DTITLE=BEAUTIFUL SIN - The Unexpected
DYEAR=2006
DGENRE=Hard Rock
TTITLE0=Lost
TTITLE1=This Is Not The Original Dream
TTITLE2=Take Me Home
TTITLE3=I'm Real
TTITLE4=The Spark Of Ignition
TTITLE5=Closer To My Heart
TTITLE6=Give Up Once For All
TTITLE7=Brace For Impact
TTITLE8=Pechvogel (Unlucky Fellow)
TTITLE9=Metalwaves
TTITLE10=The Beautiful Sin
TTITLE11=She Is Made Of Rain
EXTD=YEAR: 2006
EXTT0=
EXTT1=
EXTT2=
EXTT3=
EXTT4=
EXTT5=
EXTT6=
EXTT7=
EXTT8=
EXTT9=
EXTT10=
EXTT11=
PLAYORDER=
